<svg width="41" height="41" viewBox="0 0 41 41" fill="none" xmlns="http://www.w3.org/2000/svg">
<path fill-rule="evenodd" clip-rule="evenodd" d="M2 0.729736H0.5V2.22974V39.2323V40.7323H2H38.9972H40.4972V39.2323V2.22974V0.729736H38.9972H20.4986H2ZM3.5 37.7323V3.72974H20.4986H26.2263L37.4972 11.6615V37.7323H3.5ZM37.4972 10.4386V3.72974H27.9639L37.4972 10.4386ZM22.8109 7.35474H6.62466V6.35474H22.8109V7.35474ZM29.7479 11.9807H6.62466V10.9807H29.7479V11.9807ZM6.62466 16.6057H35.5287V15.6057H6.62466V16.6057ZM20.4986 21.2311H6.62466V20.2311H20.4986V21.2311ZM6.62466 25.8561H20.4986V24.8561H6.62466V25.8561ZM23.4671 20.2311H23.9671H35.5288H36.0288V20.7311V25.3565V25.8565H35.5288H23.9671H23.4671V25.3565V20.7311V20.2311ZM24.4671 21.2311V24.8565H35.0288V21.2311H24.4671ZM29.7479 30.4818H11.2494V29.4818H29.7479V30.4818ZM32.0603 35.1066H7.78085V34.1066H32.0603V35.1066Z" fill="#FF6B00"/>
</svg>
